<?xml version="1.0" encoding="utf-8"?>
<!-- Generator: Adobe Illustrator 27.6.1, SVG Export Plug-In . SVG Version: 6.00 Build 0)  -->
<svg version="1.1" xmlns="http://www.w3.org/2000/svg" xmlns:xlink="http://www.w3.org/1999/xlink" x="0px" y="0px"
	 viewBox="0 0 250.3 229.88" style="enable-background:new 0 0 250.3 229.88;" xml:space="preserve">
<style type="text/css">
	.st0{fill-rule:evenodd;clip-rule:evenodd;fill:#BEBFA1;}
	.st1{fill-rule:evenodd;clip-rule:evenodd;fill:none;stroke:#F0DFA7;stroke-width:3;stroke-miterlimit:10;}
	.st2{fill-rule:evenodd;clip-rule:evenodd;fill:#FFFFFF;}
	.st3{fill-rule:evenodd;clip-rule:evenodd;fill:#FFFFFF;stroke:#000000;stroke-width:0.3162;stroke-miterlimit:10;}
	.st4{fill:#F0DFA7;}
	.st5{fill:#BEBFA1;}
	.st6{fill:#DCDCCE;}
	.st7{fill:#797A67;}
	.st8{fill:#DEE0BD;stroke:#898989;stroke-width:3;stroke-miterlimit:10;}
	.st9{fill:#FFFFFF;stroke:#898989;stroke-width:3;stroke-miterlimit:10;}
	.st10{fill:#F1ECCD;stroke:#898989;stroke-width:3;stroke-miterlimit:10;}
	.st11{fill:#FFFFFF;stroke:#898989;stroke-width:3;stroke-linecap:round;stroke-linejoin:round;stroke-miterlimit:10;}
	.st12{fill:#FFFFFF;}
	.st13{fill:#898989;}
	.st14{display:none;}
	.st15{display:inline;fill-rule:evenodd;clip-rule:evenodd;fill:#FFFFFF;}
	.st16{display:inline;}
</style>
<g id="圖層_2">
	<g>
		<path class="st8" d="M248.8,106.9v77.72c0,24.17-55.36,43.77-123.65,43.77S1.5,208.79,1.5,184.61l0.01,0.37L1.5,106.9"/>
		<path class="st9" d="M1.5,106.9l0,46.6l2.78,0.76c7.15,2.28,10.14,22.21,18.93,24.43c7.54,1.9,19.58-14.16,28.24-12.53
			c7.77,1.46,13.14,20.86,21.76,21.94c7.93,1,17.93-16.43,26.52-15.88c8.03,0.51,15.73,19.1,24.3,19.13
			c8.73,0.02,16.67-18.53,24.84-19.02c8.75-0.52,18.84,16.92,26.91,15.93c8.79-1.08,14.37-20.49,22.3-21.96
			c8.82-1.64,20.99,14.41,28.65,12.48c8.94-2.25,12.06-22.22,19.3-24.52l2.78-0.91V106.9"/>
		<ellipse class="st9" cx="125.15" cy="106.9" rx="123.65" ry="43.77"/>
		<path class="st8" d="M218.52,34.55V93.8c0,18.25-41.8,33.05-93.37,33.05s-93.37-14.8-93.37-33.05V34.55"/>
		<path class="st9" d="M218.52,34.55V67.6l-2.46,0.06c-5.56,1.52-7.19,21.16-13.73,22.58c-5.77,1.25-15.39-15.91-21.88-14.85
			c-5.92,0.96-9.63,20.31-16.1,21.01c-6.02,0.65-13.78-17.43-20.25-17.08c-6.07,0.33-11.8,19.18-18.23,19.19
			c-6.54,0.01-12.43-18.82-18.59-19.14c-6.56-0.34-14.36,17.76-20.45,17.11c-6.57-0.7-10.4-20.05-16.4-21.02
			c-6.59-1.06-16.27,16.1-22.12,14.83c-6.67-1.44-8.41-21.11-14.05-22.65l-2.46-0.06V34.55"/>
		<ellipse class="st9" cx="125.15" cy="34.55" rx="93.37" ry="33.05"/>
	</g>
</g>
<g id="圖層_1" class="st14">
</g>
</svg>
