<?xml version="1.0" encoding="utf-8"?>
<!-- Generator: Adobe Illustrator 27.6.1, SVG Export Plug-In . SVG Version: 6.00 Build 0)  -->
<svg version="1.1" xmlns="http://www.w3.org/2000/svg" xmlns:xlink="http://www.w3.org/1999/xlink" x="0px" y="0px"
	 viewBox="0 0 177 141.69" style="enable-background:new 0 0 177 141.69;" xml:space="preserve">
<style type="text/css">
	.st0{fill-rule:evenodd;clip-rule:evenodd;fill:#BEBFA1;}
	.st1{fill-rule:evenodd;clip-rule:evenodd;fill:none;stroke:#F0DFA7;stroke-width:3;stroke-miterlimit:10;}
	.st2{fill-rule:evenodd;clip-rule:evenodd;fill:#FFFFFF;}
	.st3{fill-rule:evenodd;clip-rule:evenodd;fill:#FFFFFF;stroke:#000000;stroke-width:0.3162;stroke-miterlimit:10;}
	.st4{fill:#F0DFA7;}
	.st5{fill:#BEBFA1;}
	.st6{fill:#DCDCCE;}
	.st7{fill:#797A67;}
	.st8{fill:#DEE0BD;stroke:#898989;stroke-width:3;stroke-miterlimit:10;}
	.st9{fill:#FFFFFF;stroke:#898989;stroke-width:3;stroke-miterlimit:10;}
	.st10{fill:#F1ECCD;stroke:#898989;stroke-width:3;stroke-miterlimit:10;}
	.st11{fill:#FFFFFF;stroke:#898989;stroke-width:3;stroke-linecap:round;stroke-linejoin:round;stroke-miterlimit:10;}
	.st12{fill:#FFFFFF;}
	.st13{fill:#898989;}
	.st14{display:none;}
	.st15{display:inline;fill-rule:evenodd;clip-rule:evenodd;fill:#FFFFFF;}
	.st16{display:inline;}
</style>
<g id="圖層_2">
	<g>
		<path class="st10" d="M1.5,57.18v64.99c0,4.45,3.47,8.14,7.91,8.4l158.45,9.49c1.02,0.06,1.89-0.74,1.92-1.76l2.02-77.22
			L1.5,57.18z"/>
		<polygon class="st8" points="1.5,70.48 171.24,75.76 170.66,92.84 1.5,85.39 		"/>
		<polygon class="st8" points="1.89,99.89 170.61,108.08 170.25,121.51 1.89,113.58 		"/>
		<path class="st11" d="M166.17,29.1c-4.96-7.03-11.1-11.67-16.7-14.73c-7.78-4.24-17.01-4.9-25.44-2.18
			C83.89,25.18,43.76,38.16,3.63,51.14c-3.32,1.07-2.57,5.97,0.92,5.99c52.74,0.3,106.11,4,158.79,3.99c1.72,0,3.1,1.41,3.06,3.13
			l-1.83,72.62c-0.04,1.67,1.26,3.07,2.93,3.15l3.5,0.16c1.73,0.08,3.19-1.29,3.22-3.02l1.28-77.92c0.04-2.23-0.13-4.44-0.54-6.63
			C173.64,45.49,170.99,35.93,166.17,29.1z"/>
		<g>
			<g>
				<path class="st12" d="M93.49,29.22c3.81,2.11,9.28,4.58,16.2,6.01c4.71,0.97,8.91,1.22,12.33,1.18
					c11.79-0.46,21.06-6.28,22.55-13.23c0.63-2.93,0.55-6-0.37-8.93c-1.11-3.52-3.15-6.02-4.6-7.32c-2.52-2.27-6.07-3.47-10.03-3.53
					c-6.31-0.1-11.95,3.69-15.31,9.04c-1.82,2.9-4.37,6.17-7.9,9.23C101.56,25.82,96.74,28.03,93.49,29.22z"/>
				<path class="st13" d="M93.64,29.23c13.8,7.1,37.89,11.27,48.5-2.98c3.27-5.57,1.63-13.14-2.71-17.63
					c-3.47-3.56-9.2-4.43-13.9-3.15c-3.61,1.02-6.87,3.42-9.18,6.41c-2.36,3.43-4.94,6.85-8.16,9.54
					c-3.98,3.45-8.64,6.07-13.65,7.64C94.19,29.19,94.01,29.2,93.64,29.23L93.64,29.23z M93.35,29.21c0.21-0.18,0.75-0.44,1.03-0.57
					c4.58-2.19,8.82-5.17,12.38-8.76c2.94-2.87,5.13-6.24,7.33-9.69c3.39-4.85,9.03-8.4,15.09-8.33c4.49-0.02,9.13,1.49,12.2,4.94
					c4.92,5.41,6.51,14.26,2.5,20.57C132.85,42.13,107.09,37.74,93.35,29.21L93.35,29.21z"/>
			</g>
			<g>
				<path class="st12" d="M116.65,19.33c-5.7,8.01-19.91,8.7-23.16,9.88c3.81,2.11,18.83,8.26,25.74,9.69
					c4.71,0.97,9.82,1.76,13.23,1.71c11.79-0.46,20.89-12.82,22.39-19.77c0.63-2.93,0.55-6-0.37-8.93c-1.11-3.52-3.15-6.02-4.6-7.32
					c-2.52-2.27-6.07-3.47-10.03-3.53c-6.31-0.1-12.64,6.22-15.99,11.57"/>
				<path class="st13" d="M116.77,19.42c-4.57,6.32-12.84,8.07-20.04,9.58c-1.04,0.22-2.13,0.42-3.04,0.75c0,0,0.08-1.03,0.08-1.03
					c4.49,2.21,9.3,3.97,14,5.72c4.75,1.7,9.48,3.29,14.48,4.05c7.78,1.38,14.27,2.04,20.86-3.18c5.45-4.35,10.33-10.76,10.6-17.94
					c0.22-6.96-4.44-14.1-11.69-14.98c-7.56-1.51-13.8,4.78-18.03,10.33c-0.1,0.16-0.34-0.01-0.25-0.16
					c3.17-5.53,7.92-11.1,14.51-12.4c4.09-0.52,8.3,0.33,11.75,2.79c5.57,4.28,8,11.84,6.29,18.59
					c-2.6,8.74-10.04,16.64-18.81,19.41c-2.54,0.79-5.37,0.96-7.96,0.65c-5.14-0.57-10.19-1.46-15.11-3.05
					c-7.27-2.47-14.37-5.27-21.19-8.83c-0.44-0.21-0.39-0.9,0.08-1.03c8.09-1.86,17.74-2.35,23.23-9.44
					C116.65,19.09,116.88,19.26,116.77,19.42L116.77,19.42z"/>
			</g>
			<g>
				<path class="st12" d="M118.26,25.87c-4.81,4.17-19.21,4.68-24.77,3.34c3.81,2.11,21.18,8.8,28.1,10.23
					c4.71,0.97,8.91,1.22,12.33,1.18c11.79-0.46,20.38-5.21,22.55-13.23c0.78-2.9,0.55-6-0.37-8.93c-1.11-3.52-3.15-6.02-4.6-7.32
					c-2.52-2.27-6.07-3.47-10.03-3.53c-6.31-0.1-11.95,3.69-15.31,9.04"/>
				<path class="st13" d="M118.36,25.99c-5.71,4.41-18.01,4.9-24.97,3.66c0,0,0.32-0.83,0.32-0.83c4.35,2.12,9.01,3.77,13.57,5.43
					c6.91,2.4,13.79,4.88,21.11,5.28c9,0.59,20.06-0.91,25.25-9.02c4.55-7.68-0.07-19.43-8.99-21.26
					c-7.01-1.8-14.07,1.65-18.37,7.47c-0.11,0.15-0.34-0.01-0.25-0.16c4.78-9.69,17.58-13.69,26.43-6.56
					c8.52,7.69,7.99,21.46-2.2,27.38c-8.94,5.27-19.65,4.87-29.38,2.71c-7.19-1.86-14.02-4.62-20.88-7.4
					c-2.27-0.96-4.52-1.9-6.73-3.08c-0.22-0.12-0.3-0.39-0.18-0.6c0.1-0.19,0.31-0.27,0.5-0.22c6.76,1.35,18.86,1.16,24.57-3.02
					C118.31,25.63,118.51,25.86,118.36,25.99L118.36,25.99z"/>
			</g>
		</g>
	</g>
</g>
<g id="圖層_1" class="st14">
</g>
</svg>
