<?xml version="1.0" encoding="utf-8"?>
<!-- Generator: Adobe Illustrator 27.6.1, SVG Export Plug-In . SVG Version: 6.00 Build 0)  -->
<svg version="1.1" xmlns="http://www.w3.org/2000/svg" xmlns:xlink="http://www.w3.org/1999/xlink" x="0px" y="0px"
	 viewBox="0 0 51.46 51.88" style="enable-background:new 0 0 51.46 51.88;" xml:space="preserve">
<style type="text/css">
	.st0{fill-rule:evenodd;clip-rule:evenodd;fill:#BEBFA1;}
	.st1{fill-rule:evenodd;clip-rule:evenodd;fill:none;stroke:#F0DFA7;stroke-width:3;stroke-miterlimit:10;}
	.st2{fill-rule:evenodd;clip-rule:evenodd;fill:#FFFFFF;}
	.st3{fill-rule:evenodd;clip-rule:evenodd;fill:#FFFFFF;stroke:#000000;stroke-width:0.3162;stroke-miterlimit:10;}
	.st4{fill:#F0DFA7;}
	.st5{fill:#BEBFA1;}
	.st6{fill:#DCDCCE;}
	.st7{fill:#797A67;}
	.st8{display:none;}
	.st9{display:inline;fill-rule:evenodd;clip-rule:evenodd;fill:#FFFFFF;}
	.st10{display:inline;}
</style>
<g id="圖層_2">
	<g>
		<path class="st7" d="M28.17,0c1.43,0.19,2.87,0.35,4.28,0.67c5.17,1.19,9.71,3.52,13.41,7.36c2.88,2.99,4.76,6.52,5.39,10.66
			c0.68,4.49-0.34,8.6-2.91,12.33c-2.03,2.95-4.64,5.34-7.46,7.51c-5.58,4.3-11.19,8.58-16.79,12.86c-0.2,0.15-0.41,0.31-0.64,0.4
			c-0.78,0.3-1.5-0.23-1.51-1.09c-0.01-2.66-0.01-5.33,0-7.99c0-0.39-0.09-0.54-0.52-0.6c-4.04-0.51-7.86-1.71-11.35-3.85
			c-4.16-2.56-7.33-6-8.97-10.66c-2.06-5.86-1.3-11.43,2.12-16.6c2.88-4.36,6.95-7.24,11.77-9.11c2.59-1.01,5.28-1.61,8.05-1.83
			c0.08-0.01,0.16-0.04,0.24-0.06C24.93,0,26.55,0,28.17,0z M24.31,48.37c0.18-0.13,0.33-0.24,0.48-0.35
			c4.77-3.65,9.54-7.29,14.3-10.94c2.51-1.92,4.89-3.98,6.81-6.52c2.9-3.82,3.97-8.06,2.86-12.76c-0.93-3.97-3.13-7.17-6.22-9.76
			c-4.26-3.56-9.25-5.34-14.73-5.75c-3.76-0.28-7.47,0.14-11.06,1.39C12.08,5.3,8.08,7.91,5.28,12.06
			c-3.43,5.08-3.97,10.5-1.45,16.13c1.53,3.43,4.07,6.01,7.22,7.99c3.52,2.21,7.4,3.39,11.52,3.76c1.28,0.12,1.66,0.46,1.66,1.76
			c0,2.02,0,4.05,0,6.07C24.23,47.95,24.19,48.14,24.31,48.37z"/>
		<path class="st7" d="M25.31,20.38c-0.13,0.19-0.07,0.4-0.07,0.59c-0.03,1.43,0.07,2.87-0.07,4.3c-0.08,0.81-0.57,1.3-1.18,1.25
			c-0.7-0.06-1.12-0.56-1.12-1.37c0-2.78,0-5.57,0-8.35c0-0.68,0.26-1.1,0.78-1.29c0.53-0.19,1.01-0.02,1.45,0.55
			c1.32,1.71,2.63,3.42,3.95,5.13c0.12,0.16,0.26,0.31,0.43,0.51c0.17-0.3,0.18-0.58,0.18-0.86c0-1.4-0.01-2.8,0.01-4.2
			c0.01-0.78,0.47-1.22,1.2-1.18c0.47,0.02,0.79,0.27,0.95,0.7c0.09,0.24,0.13,0.49,0.13,0.74c0,2.72,0,5.43,0,8.15
			c0,0.12,0,0.24-0.02,0.35c-0.08,0.53-0.36,0.89-0.89,1.05c-0.52,0.15-0.9-0.07-1.2-0.44c-0.66-0.81-1.29-1.65-1.93-2.47
			c-0.7-0.91-1.4-1.82-2.11-2.72C25.66,20.65,25.56,20.44,25.31,20.38z"/>
		<path class="st7" d="M33.61,20.92c0.06-1.43-0.08-2.9,0.09-4.36c0.08-0.74,0.46-1.09,1.2-1.1c1.53-0.02,3.07-0.01,4.6,0
			c0.64,0,1.07,0.44,1.13,1.07c0.05,0.55-0.27,0.97-0.87,1.12c-0.21,0.05-0.43,0.08-0.65,0.09c-0.64,0.01-1.28,0.01-1.92,0.01
			c-1.3,0-1.19-0.11-1.21,1.2c-0.01,0.65,0.16,0.83,0.84,0.85c0.83,0.02,1.65,0.01,2.48,0.01c0.44,0,0.84,0.12,1.11,0.49
			c0.5,0.69,0.11,1.62-0.75,1.79c-0.87,0.18-1.75,0.07-2.62,0.09c-1.07,0.02-0.97-0.07-0.96,0.95c0,1.19-0.11,1.01,1.02,1.04
			c0.84,0.02,1.69-0.09,2.52,0.08c0.68,0.14,1.03,0.53,1.02,1.12c-0.01,0.58-0.34,0.95-0.99,1.1c-0.2,0.04-0.4,0.07-0.6,0.08
			c-1.28,0.01-2.56,0.01-3.85,0c-1.02-0.01-1.43-0.34-1.53-1.34C33.55,23.79,33.66,22.37,33.61,20.92z"/>
		<path class="st7" d="M10.73,20.97c0-1.33,0-2.66,0-4c0-0.24,0-0.47,0.08-0.7c0.17-0.54,0.54-0.82,1.07-0.82
			c0.55,0,0.97,0.31,1.1,0.86c0.09,0.36,0.12,0.73,0.12,1.1c0,2.04,0.01,4.08-0.01,6.12c0,0.48,0.13,0.66,0.62,0.64
			c0.77-0.04,1.55-0.01,2.33-0.01c0.17,0,0.34,0,0.5,0.03c0.71,0.12,1.14,0.59,1.13,1.21c-0.01,0.62-0.47,1.1-1.2,1.12
			c-1.5,0.04-3,0.04-4.5,0c-0.83-0.02-1.23-0.51-1.24-1.36C10.72,23.77,10.73,22.37,10.73,20.97z"/>
		<path class="st7" d="M18.83,20.91c0-1.45,0-2.9,0-4.35c0-0.82,0.29-1.1,1.09-1.11c0.88-0.01,1.19,0.27,1.19,1.12
			c0.01,2.93,0.01,5.86,0,8.8c0,0.82-0.39,1.19-1.18,1.18c-0.73-0.01-1.09-0.35-1.1-1.09C18.82,23.94,18.83,22.42,18.83,20.91z"/>
	</g>
</g>
<g id="圖層_1" class="st8">
</g>
</svg>
