<?xml version="1.0" encoding="utf-8"?>
<!-- Generator: Adobe Illustrator 27.6.1, SVG Export Plug-In . SVG Version: 6.00 Build 0)  -->
<svg version="1.1" xmlns="http://www.w3.org/2000/svg" xmlns:xlink="http://www.w3.org/1999/xlink" x="0px" y="0px"
	 viewBox="0 0 51.52 51.5" style="enable-background:new 0 0 51.52 51.5;" xml:space="preserve">
<style type="text/css">
	.st0{fill-rule:evenodd;clip-rule:evenodd;fill:#BEBFA1;}
	.st1{fill-rule:evenodd;clip-rule:evenodd;fill:none;stroke:#F0DFA7;stroke-width:3;stroke-miterlimit:10;}
	.st2{fill-rule:evenodd;clip-rule:evenodd;fill:#FFFFFF;}
	.st3{fill-rule:evenodd;clip-rule:evenodd;fill:#FFFFFF;stroke:#000000;stroke-width:0.3162;stroke-miterlimit:10;}
	.st4{fill:#F0DFA7;}
	.st5{fill:#BEBFA1;}
	.st6{fill:#DCDCCE;}
	.st7{fill:#797A67;}
	.st8{display:none;}
	.st9{display:inline;fill-rule:evenodd;clip-rule:evenodd;fill:#FFFFFF;}
	.st10{display:inline;}
</style>
<g id="圖層_2">
	<g>
		<path class="st5" d="M38.96,51.5c-8.78,0-17.56,0-26.33,0c-2.15-0.34-4.21-0.97-6.04-2.19c-4.13-2.77-6.47-6.63-6.54-11.63
			c-0.1-7.94-0.02-15.88-0.03-23.81c0-0.81,0.09-1.61,0.25-2.39C1.66,4.63,7.69-0.03,14.24,0c7.7,0.03,15.41,0.01,23.11,0.01
			c0.79,0,1.57,0.05,2.35,0.19c4.65,0.86,8.07,3.4,10.31,7.55c0.82,1.52,1.23,3.17,1.52,4.86c0,8.78,0,17.56,0,26.33
			c-0.05,0.25-0.11,0.49-0.15,0.74c-0.85,4.65-3.4,8.07-7.55,10.31C42.3,50.81,40.65,51.22,38.96,51.5z M4.72,25.78
			C4.72,25.78,4.72,25.78,4.72,25.78c-0.01,3.73-0.01,7.47,0,11.2c0,0.59,0.02,1.17,0.09,1.75c0.53,4.34,4.66,8.1,9.03,8.11
			c7.9,0.02,15.81,0.01,23.71,0.01c0.4,0,0.8-0.05,1.2-0.1c4.35-0.52,8.1-4.65,8.11-9.02c0.02-7.9,0.01-15.81,0.01-23.71
			c0-0.4-0.05-0.8-0.1-1.2c-0.52-4.35-4.65-8.1-9.02-8.11C29.84,4.69,21.94,4.7,14.03,4.7c-0.4,0-0.8,0.05-1.2,0.1
			c-4.35,0.52-8.08,4.65-8.11,9.02C4.7,17.81,4.72,21.79,4.72,25.78z"/>
		<path class="st5" d="M25.84,12.47c7.28-0.03,13.3,6.03,13.27,13.36c-0.03,7.27-6.05,13.29-13.39,13.26
			c-7.25-0.04-13.29-6.04-13.24-13.4C12.52,18.44,18.51,12.4,25.84,12.47z M34.4,25.8c0-4.76-3.82-8.62-8.55-8.64
			c-4.79-0.01-8.66,3.81-8.67,8.56c-0.01,4.79,3.82,8.65,8.57,8.66C30.54,34.39,34.4,30.56,34.4,25.8z"/>
		<path class="st5" d="M39.59,15.39c-1.9-0.02-3.39-1.54-3.38-3.44c0.02-1.84,1.6-3.4,3.42-3.37c1.88,0.03,3.4,1.58,3.38,3.47
			C43,13.9,41.45,15.41,39.59,15.39z"/>
	</g>
</g>
<g id="圖層_1" class="st8">
</g>
</svg>
