<?xml version="1.0" encoding="utf-8"?>
<!-- Generator: Adobe Illustrator 27.6.1, SVG Export Plug-In . SVG Version: 6.00 Build 0)  -->
<svg version="1.1" id="圖層_1" xmlns="http://www.w3.org/2000/svg" xmlns:xlink="http://www.w3.org/1999/xlink" x="0px" y="0px"
	 viewBox="0 0 86.3 84.5" style="enable-background:new 0 0 86.3 84.5;" xml:space="preserve">
<style type="text/css">
	.st0{fill-rule:evenodd;clip-rule:evenodd;fill:#FFFFFF;}
	.st1{fill-rule:evenodd;clip-rule:evenodd;fill:#9A9C83;}
	.st2{display:none;}
</style>
<g id="圖層_2_00000096745374830680102240000003742132773402384797_">
	<g>
		<path class="st0" d="M54.8,52.3c0.5-0.7,1.1-1.2,1.8-1.8C56.2,51.3,55.7,52,54.8,52.3z"/>
	</g>
	<g>
		<g>
			<path class="st0" d="M56.9,49.9c0.8-1.7,1.6-3.4,1.4-5.3c-0.1-0.6-0.1-1.2-0.2-1.8c0.8,1,0.4,2.1,0.4,3.1
				C58.4,47.4,58.2,48.9,56.9,49.9z"/>
		</g>
		<g>
			<path class="st0" d="M58.1,42.9c-0.2-0.2-0.3-0.5-0.4-0.8C58.2,42.2,58.1,42.5,58.1,42.9z"/>
		</g>
		<path class="st1" d="M85.4,31.6c-0.1-0.6-0.3-1-0.9-1.1c-0.6-0.1-1.1,0-1.5,0.5c-0.2,0.3-0.4,0.6-0.4,1c-0.1,0.8-0.4,1.7-0.6,2.5
			c-1.1,3.5-2.3,7-4.4,10.1c-0.1,0.1-1.5,2.1-2,2.5c-0.8,0.8-1.5,1.6-2.6,2.1c-1.2,0.6-1.8,0.3-2.3-0.9c-0.7-2-0.4-4.1-0.1-6.2
			c0.6-1.9,1.5-3.6,2.1-5.5c0.6-1.7,1.4-3.3,1-5.1c-0.9-1-2.2-1-2.9,0.1c-1,1.7-1.6,3.5-2.1,5.4c-0.4,1.4-0.4,3-1,4.3
			c-1.5,3.4-3.5,6.6-6,9.4c-1.4,1.7-2.9,3.2-5.1,3.7c1.6-1.7,2.9-3.6,3.8-5.8c0.7-2.7,0.8-5.3-0.5-7.9c-0.7-1.4-2.4-2.7-4-2.8
			c-2.7-0.1-4.9,0.9-6.7,2.9c-0.2,0.2-0.3,0.3-0.5,0.2c-0.3-0.1-0.3-0.3-0.2-0.6c0.1-0.5,0.1-0.9,0.3-1.3c0.9-2.3,1.9-4.6,2.7-6.9
			c0.9-2.6,1.6-5.2,2.2-7.8c0.8-3.4,1.2-6.9,1.6-10.4c0.3-2.9,0.2-5.8-0.1-8.7c-0.1-1.5-0.7-3-1.6-4.3c-0.8-1.1-3-1.4-4-0.1
			c-1.4,1.9-1.9,4-2.2,6.2c-0.5,3.4-0.7,6.9-0.8,10.4c-0.2,5.9,0,11.8-0.5,17.7c-0.2,2.3-0.7,4.5-1.8,6.5c-2.1,3.7-4.7,7.1-8,9.8
			c-0.6,0.5-1.1,0.9-1.7,1.3c-0.2,0.2-0.5,0.3-0.7,0.1c-0.3-0.2,0-0.5,0.2-0.7c0.6-0.8,0.9-1.8,1.2-2.7c0.5-1.6-1-3.4-2.7-3.3
			c-1.2,0.1-2.2,0.6-3.1,1.5c-1.1,1-1.8,2.3-2.3,3.7c-0.1,0.8-0.3,1.7-0.1,2.5c0.1,0.5-0.1,0.7-0.5,0.9c-2.4,1.3-5,1.9-7.7,1.4
			c-3.3-0.6-5.2-2.8-6.2-6c-0.2-0.6,0.3-0.6,0.6-0.6c1.4,0.2,2.7-0.1,4-0.3c2.7-0.5,5-1.7,7.2-3.3c2.1-1.8,4.3-3.5,5.8-5.9
			c0.9-1.4,1.9-2.7,2.6-4.1c2-3.8,3.2-7.9,3.2-12.3c0-3.2-0.4-6.4-1.4-9.5c-1-3.1-2.5-5.9-5-8.1c-2.5-2.3-5.4-3.3-8.8-2.6
			c-1.4,0.3-2.7,0.8-4,1.3C14.8,6.1,13,8,11.4,10.1c-1.5,2-2.7,4.2-3.8,6.4c-0.1,0.3-0.2,0.6-0.6,0.6c-0.4,0-0.4-0.4-0.5-0.6
			c-0.7-2.1-1.3-4.2-2.2-6.2C3.9,9.2,3.5,8,2.9,6.9C2.4,6.3,1.5,6,1,6.4C0.5,6.7,0.2,7.5,0.5,8.2c0.1,0.2,0.2,0.3,0.2,0.4
			c0.9,1.6,1.4,3.4,2,5.1c0.7,2.1,1.3,4.2,1.9,6.3c0.4,1.5,0.7,2.8,0.1,4.4c-1,2.9-1.7,5.9-2.4,8.8c-0.6,2.6-1,5.2-1.4,7.8
			c-0.4,2.6-0.7,5.2-0.9,7.9c-0.2,2.5-0.2,5,0.2,7.5c0.2,1.5,0.4,3,1.3,4.3c0.7,1.1,2,1.5,3.2,0.8c1.4-0.8,2.1-2.2,2.7-3.5
			c0.9-2,1.6-4.2,1.9-6.4c0-0.2,0-0.5,0.3-0.5c0.3,0,0.4,0.2,0.5,0.5c0.4,1.1,0.9,2,1.4,3c0.2,0.2,0.4,0.4,0.6,0.6
			c2.1,2.8,5,3.9,8.3,4c2.7,0.1,5.3-0.8,7.7-2c0.5-0.2,0.9-0.4,1.4-0.3c1.1,0.3,2.2,0.2,3.3-0.1c2.3-0.7,4.1-2.2,6-3.6
			c0.7-0.8,1.4-1.7,2.3-2.4c0.1,0,0.2-0.1,0.2-0.2c0.5-0.2,0.7-0.7,1.2-1c-0.7,1.8-1.6,3.5-1.8,5.5c-0.1,1,0.2,2,1,2.4
			c0.7,0.4,1.7,0,2.4-0.8c0.3-0.4,0.6-0.7,0.8-1.2c0.9-1.6,1.5-3.3,2-5.1c0.3-1.3,0.6-2.7,1.3-3.8c0.2-0.5,0.4-0.7,0.8-1.1
			c0.7-0.9,1.5-1.6,2.2-2.5c1.1-1,2.3-1.8,3.8-2.2c0.6-0.1,1.1-0.1,1.7,0.2c1.8,1.5,1.9,3.4,1.5,5.5c-0.4,1.9-1.3,3.5-2.5,4.8
			c0,0,0,0,0,0C55,52,54.3,52.5,53.5,53c-0.2,0.1-0.4,0.2-0.6,0.3c-1.1,0.4-1.5,0.2-1.5-1c0-0.8,0-1.7,0-2.6c0-0.3,0-0.5,0-0.8v0
			c0,0,0-0.1,0-0.1c-0.1-0.4-0.3-0.8-0.8-1c-0.8-0.3-1.5-0.1-2,0.6c0,0.1-0.1,0.2-0.2,0.2c-0.2,0.5-0.4,1-0.5,1.5
			c-0.4,1.4-0.5,2.9,0.2,4.3c1.5,2.7,4.2,4,7.3,3.5c0,0,0,0,0,0c0.3,0,0.6-0.1,0.8-0.2c1.4-0.5,2.9-0.8,3.9-2l0,0
			c1.6-1.2,3.1-2.4,4.3-4c1-1.2,2-2.6,2.9-3.9c0.1-0.1,0.2-0.1,0.3-0.2c0.4,0,0.3,0.3,0.4,0.5c0.8,3.4,3.3,5,6.7,3
			c1.3-0.8,2.3-1.8,3.3-2.9c0.2-0.2,0.3-0.5,0.7-0.5c0.2,0.3,0,0.6-0.1,0.9c-0.5,1.6-1.1,3.2-1.7,4.7c-1,2.5-2.1,5-3.5,7.4
			c-2.9,5.9-4.5,9.4-9,14.1c-0.6,0.7-2.1,2.1-2.2,2.1c-1.7,1.5-3.5,2.9-5.6,3.7c-2.2,0.8-4.5,0.9-6.3-1c-1.9-2-3.2-4.4-4.2-6.9
			c-0.5-1.2-0.9-2.3-1.6-3.4c-0.4-0.6-0.9-0.6-1.5-0.4c-0.5,0.2-0.7,0.6-0.6,1.2c0,0.3,0,0.5,0.1,0.8c0.8,2.5,1.9,4.9,3.3,7.2
			c0.8,1.3,1.6,2.4,2.7,3.7c1.6,1.4,2.7,1.8,4.3,2.1c2.7,0.4,5-0.7,7.3-2c1.8-1,3.3-2.4,4.7-3.8c1.4-1.3,2.7-2.7,3.8-4.3
			c1.1-1.5,2.1-3.1,3.2-4.7c2.2-3.4,3.9-6.7,5.7-10.3c0-0.1,0.2-0.6,0.2-0.7c1.5-3.3,2.8-6.7,3.9-10.1c0.7-2.2,1.2-4.5,1.9-6.7
			c0.2-1.2,0.5-2.4,0.7-3.6c0.2-1.1,0.4-2.3,0.6-3.4C85.2,33.7,85.5,32.7,85.4,31.6z M49.6,18.8c0.1-2.3,0.1-4.6,0.3-7
			c0.3-2.7,0.5-5.4,1.5-7.9c0.1-0.3,0.1-0.7,0.5-0.7c0.4,0,0.4,0.4,0.5,0.7C52.7,5.2,53,6.5,53,7.8c0.2,7.2-0.9,14.3-3.1,21.2
			c-0.1,0.2-0.1,0.4-0.2,0.5C49.5,26,49.4,22.4,49.6,18.8z M7.8,42.3c-0.2,2-0.2,4.1-0.6,6.1c-0.3,2-0.7,3.9-1.3,5.8
			c-0.5,1.4-1,2.7-1.7,4c-0.3,0.6-0.6,0.7-0.8-0.1c-0.5-2.1-0.7-4.3-0.6-6.5c0-2.6,0.2-5.3,0.5-7.9c0.4-3.8,1.1-7.7,2-11.4
			C5.5,31.6,5.7,30.8,6,30l0,0c0.2-0.2,0.2-1.4,0.6-1.4c0.3,0,0.3,0.4,0.3,0.6c0,0.2-0.1,0.4,0.1,0.5v0C7.1,30.2,7,30.6,7,31
			c0,0,0,0-0.1,0l0,0c0,0,0,0,0,0C7,31,7,31,7,31c0.4,0.6,0.3,1.4,0.4,2.1c0.1,1.5,0.4,2.9,0.2,4.3c0,0.2,0,0.3,0.1,0.5l0,0
			C7.9,39.4,7.9,40.9,7.8,42.3z M11.2,46.2c-0.7-0.4-1-1-1-1.9c0.3-3.5,0.2-7-0.2-10.6c-0.3-3-0.7-6-1.4-8.9
			c-0.3-1.3-0.3-2.4,0.2-3.7c1-2.4,1.9-4.9,3.3-7.1c1.3-1.9,2.5-3.8,4.3-5.3c2.4-2,4.9-3.3,8.1-2.6C25.3,6.4,26,6.6,26.6,7
			c2.7,1.7,4.3,4.2,5.4,7.1c2.2,5.6,2.1,11.3,0.3,17c-1.3,3.3-2.9,6.4-5.2,9.2c-0.2,0.2-0.8,1-2.4,2.4c-2.1,1.9-4.5,3.3-7.3,4.1
			C15.3,47.3,13.2,47.4,11.2,46.2z M32.3,50c-0.6,0.9-1,2-2.4,2.6c0.3-1.3,0.9-2.3,1.8-3c0.2-0.1,0.4-0.3,0.6-0.2
			C32.6,49.6,32.4,49.9,32.3,50z"/>
		<path class="st1" d="M73,27.5c0.7,0,1-0.4,1.1-1c-0.1-0.7-0.4-1-1.1-1c-0.7,0-1,0.4-1,1.1C72,27.2,72.4,27.5,73,27.5z"/>
		<path class="st1" d="M85.2,24.7c-0.9,0-1.5,0.5-1.5,1.2c0,0.8,0.6,1.1,1.3,1.2c0.7,0.1,1.3-0.6,1.3-1.3
			C86.3,25.1,85.8,24.7,85.2,24.7z"/>
	</g>
</g>
<g id="圖層_1_00000067197173271799951360000013938504885024764049_" class="st2">
</g>
</svg>
