<?xml version="1.0" encoding="utf-8"?>
<!-- Generator: Adobe Illustrator 27.6.1, SVG Export Plug-In . SVG Version: 6.00 Build 0)  -->
<svg version="1.1" xmlns="http://www.w3.org/2000/svg" xmlns:xlink="http://www.w3.org/1999/xlink" x="0px" y="0px"
	 viewBox="0 0 86.3 84.48" style="enable-background:new 0 0 86.3 84.48;" xml:space="preserve">
<style type="text/css">
	.st0{fill-rule:evenodd;clip-rule:evenodd;fill:#BEBFA1;}
	.st1{fill-rule:evenodd;clip-rule:evenodd;fill:none;stroke:#F0DFA7;stroke-width:3;stroke-miterlimit:10;}
	.st2{fill-rule:evenodd;clip-rule:evenodd;fill:#FFFFFF;}
	.st3{fill-rule:evenodd;clip-rule:evenodd;fill:#FFFFFF;stroke:#000000;stroke-width:0.3162;stroke-miterlimit:10;}
	.st4{fill:#F0DFA7;}
	.st5{fill:#BEBFA1;}
	.st6{display:none;}
	.st7{display:inline;fill-rule:evenodd;clip-rule:evenodd;fill:#FFFFFF;}
	.st8{display:inline;}
</style>
<g id="圖層_2">
	<g>
		<path class="st2" d="M54.79,52.29c0.52-0.66,1.11-1.25,1.76-1.79C56.2,51.34,55.69,52,54.79,52.29z"/>
	</g>
	<g>
		<g>
			<path class="st2" d="M56.94,49.93c0.8-1.69,1.6-3.38,1.4-5.33c-0.06-0.58-0.14-1.17-0.21-1.75c0.76,0.96,0.42,2.08,0.37,3.11
				C58.43,47.42,58.15,48.88,56.94,49.93z"/>
		</g>
		<g>
			<path class="st2" d="M58.13,42.86c-0.22-0.22-0.35-0.48-0.39-0.79C58.17,42.18,58.14,42.52,58.13,42.86z"/>
		</g>
		<path class="st2" d="M85.4,31.6c-0.07-0.58-0.32-1.04-0.9-1.15c-0.55-0.1-1.11-0.04-1.47,0.52c-0.19,0.31-0.37,0.62-0.43,0.98
			c-0.14,0.84-0.36,1.66-0.62,2.47c-1.12,3.53-2.26,7.05-4.36,10.15c-0.07,0.07-1.53,2.08-1.96,2.46c-0.77,0.81-1.53,1.61-2.55,2.11
			c-1.2,0.59-1.85,0.33-2.26-0.91c-0.67-2.04-0.36-4.11-0.1-6.17c0.57-1.89,1.49-3.64,2.13-5.49c0.57-1.65,1.4-3.28,1-5.13
			c-0.87-1.05-2.23-1.01-2.92,0.15c-0.99,1.67-1.56,3.51-2.06,5.37c-0.37,1.41-0.43,2.95-1.02,4.26c-1.53,3.41-3.46,6.6-5.99,9.39
			c-1.4,1.65-2.91,3.17-5.06,3.72c1.59-1.68,2.94-3.57,3.84-5.77c0.67-2.68,0.85-5.31-0.48-7.91c-0.74-1.44-2.38-2.67-4.01-2.75
			c-2.7-0.12-4.89,0.92-6.69,2.87c-0.15,0.16-0.28,0.29-0.49,0.22c-0.27-0.09-0.27-0.32-0.24-0.57c0.07-0.45,0.14-0.9,0.32-1.33
			c0.91-2.31,1.9-4.58,2.72-6.92c0.89-2.56,1.6-5.17,2.22-7.8c0.82-3.44,1.25-6.93,1.61-10.45c0.3-2.92,0.17-5.82-0.1-8.71
			c-0.14-1.5-0.67-2.99-1.59-4.27c-0.8-1.11-3.02-1.41-4-0.08c-1.38,1.87-1.86,4.02-2.21,6.2c-0.55,3.43-0.73,6.88-0.85,10.35
			c-0.21,5.88-0.05,11.78-0.51,17.66c-0.18,2.32-0.66,4.51-1.8,6.52c-2.11,3.73-4.68,7.1-8.03,9.83c-0.56,0.45-1.12,0.91-1.7,1.34
			c-0.2,0.15-0.51,0.29-0.73,0.11c-0.3-0.25,0-0.48,0.15-0.67c0.64-0.79,0.89-1.75,1.18-2.67c0.49-1.57-1.05-3.42-2.68-3.26
			c-1.21,0.12-2.25,0.59-3.15,1.45c-1.09,1.05-1.84,2.28-2.27,3.73c-0.09,0.84-0.31,1.67-0.1,2.52c0.12,0.48-0.13,0.71-0.51,0.92
			c-2.42,1.35-5.03,1.91-7.74,1.39c-3.3-0.64-5.25-2.83-6.18-5.99c-0.17-0.59,0.26-0.61,0.62-0.56c1.35,0.2,2.66-0.06,3.98-0.3
			c2.7-0.49,5.03-1.74,7.2-3.35c2.1-1.8,4.26-3.54,5.79-5.92c0.89-1.37,1.87-2.68,2.64-4.12c2.05-3.84,3.18-7.93,3.25-12.29
			c0.05-3.22-0.37-6.38-1.37-9.46c-1.02-3.1-2.55-5.88-4.96-8.1c-2.5-2.29-5.39-3.31-8.82-2.65c-1.4,0.27-2.69,0.8-4,1.31
			c-2.33,1.3-4.12,3.19-5.73,5.27c-1.53,1.98-2.7,4.17-3.76,6.42c-0.12,0.26-0.21,0.6-0.57,0.6c-0.39,0-0.4-0.37-0.5-0.64
			c-0.74-2.06-1.3-4.18-2.18-6.19C3.91,9.2,3.55,8,2.87,6.95c-0.44-0.67-1.32-0.9-1.89-0.57C0.46,6.69,0.25,7.52,0.54,8.23
			C0.6,8.38,0.7,8.51,0.78,8.65c0.9,1.6,1.38,3.38,1.99,5.09c0.73,2.05,1.34,4.16,1.87,6.28c0.36,1.45,0.69,2.82,0.11,4.38
			c-1.05,2.87-1.74,5.86-2.41,8.85c-0.57,2.59-1,5.19-1.4,7.81c-0.39,2.62-0.69,5.24-0.86,7.87c-0.15,2.48-0.16,4.98,0.15,7.46
			c0.19,1.53,0.44,3.03,1.31,4.35c0.74,1.12,2.05,1.49,3.24,0.85c1.42-0.76,2.08-2.15,2.67-3.52c0.88-2.04,1.56-4.16,1.93-6.37
			c0.04-0.22,0-0.5,0.3-0.54c0.34-0.05,0.43,0.25,0.51,0.49c0.35,1.06,0.85,2.05,1.4,3.02c0.21,0.21,0.43,0.41,0.61,0.64
			c2.1,2.75,5.01,3.89,8.34,4.04c2.73,0.12,5.27-0.75,7.67-1.99c0.45-0.23,0.88-0.44,1.4-0.3c1.11,0.29,2.19,0.2,3.28-0.12
			c2.31-0.69,4.14-2.17,5.99-3.62c0.74-0.85,1.43-1.74,2.33-2.44c0.08-0.05,0.15-0.11,0.22-0.17c0.47-0.24,0.73-0.73,1.15-1
			c-0.73,1.78-1.56,3.51-1.83,5.45c-0.14,1,0.25,2.04,0.95,2.39c0.73,0.37,1.69,0.05,2.4-0.82c0.31-0.38,0.64-0.74,0.83-1.2
			c0.87-1.61,1.51-3.31,1.96-5.08c0.33-1.32,0.63-2.65,1.33-3.81c0.25-0.52,0.41-0.65,0.77-1.13c0.66-0.87,1.53-1.56,2.17-2.47
			c1.11-1.02,2.33-1.82,3.84-2.16c0.63-0.14,1.14-0.09,1.66,0.23c1.83,1.45,1.89,3.44,1.51,5.46c-0.37,1.92-1.26,3.48-2.54,4.75
			c-0.01,0.01-0.03,0.03-0.04,0.04c-0.62,0.61-1.33,1.15-2.14,1.63c-0.2,0.12-0.42,0.2-0.63,0.28c-1.1,0.4-1.45,0.17-1.47-1
			c-0.02-0.85-0.03-1.71,0-2.56c0.01-0.27,0-0.55-0.05-0.8c0,0,0-0.01,0-0.01c0-0.03-0.01-0.06-0.02-0.08
			c-0.1-0.41-0.31-0.76-0.75-0.96c-0.76-0.34-1.47-0.08-1.97,0.63c-0.05,0.07-0.1,0.15-0.17,0.2c-0.25,0.48-0.4,1.02-0.55,1.53
			c-0.4,1.44-0.53,2.91,0.2,4.27c1.46,2.74,4.17,4.01,7.26,3.49c0.01,0,0.01,0,0.02-0.01c0.28-0.03,0.62-0.09,0.84-0.18
			c1.37-0.53,2.86-0.85,3.94-1.97v0c1.59-1.15,3.07-2.42,4.32-3.95c1.03-1.25,1.98-2.57,2.9-3.9c0.11-0.06,0.21-0.14,0.32-0.18
			c0.36,0.01,0.3,0.32,0.38,0.52c0.81,3.39,3.33,5.02,6.67,3.05c1.28-0.76,2.29-1.84,3.28-2.94c0.19-0.2,0.3-0.53,0.68-0.45
			c0.21,0.35-0.02,0.64-0.12,0.93c-0.51,1.59-1.08,3.16-1.69,4.71c-1.01,2.54-2.09,5.05-3.46,7.43c-2.92,5.86-4.48,9.39-9.03,14.13
			c-0.6,0.72-2.1,2.07-2.17,2.14c-1.67,1.54-3.46,2.93-5.6,3.73c-2.24,0.84-4.48,0.91-6.26-0.99c-1.87-2-3.2-4.36-4.21-6.91
			c-0.46-1.15-0.9-2.31-1.58-3.36c-0.37-0.57-0.93-0.59-1.48-0.39c-0.53,0.19-0.71,0.64-0.61,1.19c0.05,0.26,0.05,0.52,0.13,0.77
			c0.8,2.53,1.94,4.91,3.3,7.19c0.78,1.33,1.57,2.45,2.7,3.7c1.58,1.41,2.67,1.84,4.33,2.11c2.74,0.44,5.03-0.74,7.29-2.01
			c1.77-1,3.28-2.36,4.74-3.75c1.4-1.33,2.72-2.72,3.83-4.31c1.08-1.54,2.14-3.1,3.2-4.66c2.2-3.44,3.89-6.65,5.65-10.33
			c0.01-0.11,0.21-0.62,0.22-0.74c1.54-3.27,2.76-6.66,3.88-10.09c0.72-2.22,1.21-4.51,1.92-6.73c0.19-1.21,0.5-2.41,0.7-3.62
			c0.16-1.14,0.38-2.26,0.63-3.37C85.2,33.74,85.54,32.7,85.4,31.6z M49.59,18.82c0.11-2.32,0.07-4.64,0.3-6.96
			c0.26-2.67,0.51-5.35,1.48-7.89c0.1-0.27,0.14-0.67,0.48-0.68c0.4-0.01,0.44,0.44,0.53,0.73c0.37,1.23,0.58,2.5,0.62,3.77
			c0.23,7.25-0.94,14.3-3.13,21.19c-0.06,0.18-0.14,0.36-0.21,0.54C49.54,25.96,49.42,22.39,49.59,18.82z M7.8,42.31
			c-0.19,2.04-0.21,4.1-0.55,6.14c-0.33,1.96-0.7,3.91-1.29,5.82c-0.48,1.37-0.96,2.74-1.7,4c-0.33,0.56-0.62,0.69-0.85-0.06
			c-0.54-2.13-0.66-4.3-0.63-6.49c0.05-2.64,0.23-5.26,0.52-7.88c0.43-3.85,1.1-7.67,2.03-11.44c0.19-0.79,0.37-1.58,0.63-2.35v0
			c0.16-0.25,0.18-1.43,0.57-1.37c0.31,0.04,0.31,0.35,0.32,0.62c0,0.19-0.05,0.39,0.09,0.55l0,0.01c0.18,0.37,0.1,0.75,0.06,1.13
			c-0.03,0.01-0.04,0.03-0.06,0.04l0,0c0,0.01,0,0.01,0,0.02c0.03-0.02,0.04-0.04,0.07-0.06c0.43,0.65,0.35,1.42,0.39,2.11
			c0.07,1.45,0.37,2.89,0.24,4.35c-0.01,0.16-0.01,0.33,0.09,0.47v0C7.9,39.39,7.94,40.86,7.8,42.31z M11.16,46.24
			c-0.74-0.44-1.04-1.04-0.96-1.88c0.32-3.53,0.17-7.05-0.2-10.56c-0.31-2.99-0.71-5.97-1.45-8.89c-0.32-1.28-0.3-2.44,0.23-3.7
			c1-2.41,1.88-4.88,3.3-7.1c1.28-1.89,2.53-3.8,4.32-5.28c2.37-1.96,4.94-3.3,8.15-2.61c0.74,0.16,1.45,0.38,2.09,0.8
			c2.66,1.72,4.3,4.22,5.41,7.11c2.15,5.62,2.11,11.28,0.27,16.97c-1.27,3.32-2.94,6.37-5.17,9.15c-0.18,0.23-0.82,1.01-2.44,2.44
			c-2.15,1.87-4.54,3.31-7.3,4.08C15.27,47.35,13.16,47.42,11.16,46.24z M32.3,50.04c-0.61,0.92-1.03,2.02-2.37,2.57
			c0.33-1.32,0.86-2.28,1.76-3.02c0.17-0.14,0.42-0.29,0.63-0.16C32.58,49.6,32.42,49.86,32.3,50.04z"/>
		<path class="st2" d="M73.04,27.51c0.68,0.01,1.02-0.35,1.05-1.01c-0.05-0.67-0.39-1-1.07-0.99c-0.7,0.01-1.01,0.44-1.01,1.06
			C72.02,27.18,72.43,27.5,73.04,27.51z"/>
		<path class="st2" d="M85.22,24.73c-0.9,0.01-1.48,0.53-1.48,1.25c0,0.84,0.57,1.13,1.28,1.2c0.65,0.06,1.31-0.65,1.28-1.33
			C86.26,25.1,85.83,24.75,85.22,24.73z"/>
	</g>
</g>
<g id="圖層_1" class="st6">
</g>
</svg>
