<?xml version="1.0" encoding="utf-8"?>
<!-- Generator: Adobe Illustrator 27.6.1, SVG Export Plug-In . SVG Version: 6.00 Build 0)  -->
<svg version="1.1" xmlns="http://www.w3.org/2000/svg" xmlns:xlink="http://www.w3.org/1999/xlink" x="0px" y="0px"
	 viewBox="0 0 113.69 166.77" style="enable-background:new 0 0 113.69 166.77;" xml:space="preserve">
<style type="text/css">
	.st0{fill-rule:evenodd;clip-rule:evenodd;fill:#BEBFA1;}
	.st1{fill-rule:evenodd;clip-rule:evenodd;fill:none;stroke:#F0DFA7;stroke-width:3;stroke-miterlimit:10;}
	.st2{fill-rule:evenodd;clip-rule:evenodd;fill:#FFFFFF;}
	.st3{fill-rule:evenodd;clip-rule:evenodd;fill:#FFFFFF;stroke:#000000;stroke-width:0.3162;stroke-miterlimit:10;}
	.st4{fill:#F0DFA7;}
	.st5{fill:#BEBFA1;}
	.st6{display:none;}
	.st7{display:inline;fill-rule:evenodd;clip-rule:evenodd;fill:#FFFFFF;}
	.st8{display:inline;}
</style>
<g id="圖層_2">
	<g>
		<g>
			<ellipse class="st0" cx="56.69" cy="83.38" rx="55.01" ry="81.55"/>
		</g>
		<g>
			<path class="st4" d="M56.85,166.77C25.5,166.77,0,129.36,0,83.38S25.5,0,56.85,0s56.85,37.41,56.85,83.38
				S88.19,166.77,56.85,166.77z M56.85,3.67c-29.32,0-53.17,35.76-53.17,79.71s23.85,79.71,53.17,79.71s53.17-35.76,53.17-79.71
				S86.17,3.67,56.85,3.67z"/>
		</g>
		<g>
			<path class="st2" d="M87.94,77.61c0.4,1.86-0.43,3.48-1,5.14c-0.64,1.86-1.57,3.61-2.14,5.51c-0.26,2.07-0.57,4.14,0.1,6.19
				c0.41,1.25,1.06,1.5,2.27,0.91c1.02-0.5,1.79-1.31,2.56-2.12c0.43-0.38,1.89-2.39,1.97-2.47c2.1-3.1,3.24-6.63,4.37-10.18
				c0.26-0.81,0.49-1.63,0.62-2.47c0.06-0.36,0.24-0.68,0.43-0.98c0.36-0.56,0.93-0.63,1.48-0.53c0.58,0.11,0.83,0.57,0.9,1.15
				c0.13,1.11-0.21,2.15-0.44,3.2c-0.25,1.12-0.48,2.24-0.63,3.38c-0.21,1.21-0.51,2.41-0.71,3.63c-0.71,2.23-1.2,4.52-1.93,6.75
				c-1.12,3.44-2.34,6.84-3.89,10.12c-0.01,0.11-0.21,0.63-0.22,0.74c-1.76,3.69-3.45,6.91-5.66,10.36
				c-1.06,1.56-2.12,3.13-3.21,4.68c-1.11,1.59-2.44,2.99-3.84,4.32c-1.47,1.39-2.98,2.75-4.75,3.76c-2.26,1.28-4.56,2.46-7.31,2.02
				c-1.66-0.27-2.75-0.7-4.34-2.11c-1.13-1.26-1.92-2.39-2.71-3.71c-1.36-2.29-2.5-4.67-3.31-7.21c-0.08-0.25-0.08-0.52-0.13-0.77
				c-0.1-0.55,0.08-1,0.61-1.19c0.55-0.2,1.11-0.19,1.48,0.39c0.68,1.05,1.12,2.22,1.58,3.37c1.01,2.55,2.34,4.92,4.22,6.93
				c1.79,1.91,4.04,1.84,6.28,1c2.15-0.8,3.94-2.2,5.61-3.74c0.07-0.06,1.58-1.42,2.18-2.14c4.56-4.75,6.12-8.29,9.05-14.17
				c1.38-2.38,2.46-4.9,3.47-7.45c0.62-1.55,1.19-3.13,1.7-4.72c0.09-0.29,0.33-0.59,0.12-0.94c-0.39-0.08-0.5,0.25-0.68,0.45
				c-1,1.1-2,2.18-3.29,2.94c-3.34,1.98-5.87,0.35-6.68-3.06c-0.08-0.21-0.02-0.51-0.38-0.53c-0.12,0.04-0.22,0.12-0.33,0.18
				c-0.93,1.34-1.88,2.66-2.91,3.91c-1.25,1.52-2.73,2.81-4.33,3.96v0c-1.47,1.01-3.16,1.54-4.81,2.16
				c-3.09,0.52-5.81-0.75-7.28-3.5c-0.73-1.37-0.6-2.84-0.2-4.29c0.15-0.53,0.3-1.08,0.56-1.57c0.6-1.13,1.73-1.35,2.66-0.52
				c0.47,0.93,0.21,1.94,0.28,2.91c0.01,0.1,0,0.2,0,0.3c0.05,0.67-0.24,1.52,0.49,1.89c0.75,0.39,1.43-0.18,2.08-0.56
				c0.2-0.12,0.38-0.26,0.55-0.42c0.06-0.07,0.14-0.13,0.21-0.18c0.72-0.41,1.29-0.96,1.64-1.73c0.14-0.25,0.23-0.53,0.47-0.71
				c1.56-1.94,1.73-4.14,1.23-6.47c-0.04-0.08-0.08-0.16-0.12-0.25c-0.06-0.26-0.14-0.5-0.33-0.7c-0.05-0.07-0.1-0.15-0.14-0.23
				c-0.29-0.6-0.89-0.87-1.42-1.14c-0.73-0.37-1.39,0.24-1.99,0.48c-1.13,0.46-2.2,1.13-2.98,2.13c-0.6,0.79-1.37,1.41-2.04,2.12
				c-1.3,1.37-1.68,3.12-2.11,4.86c-0.44,1.78-1.09,3.48-1.96,5.09c-0.2,0.46-0.53,0.83-0.84,1.2c-0.72,0.87-1.68,1.19-2.41,0.82
				c-0.7-0.35-1.09-1.4-0.95-2.4c0.27-1.94,1.11-3.68,1.84-5.46c-0.42,0.28-0.68,0.77-1.15,1.01c-0.07,0.06-0.14,0.12-0.22,0.17
				c-0.9,0.7-1.59,1.59-2.33,2.45c-1.86,1.45-3.69,2.94-6.01,3.63c-1.09,0.33-2.18,0.41-3.29,0.12c-0.52-0.13-0.95,0.07-1.4,0.3
				c-2.41,1.25-4.96,2.12-7.7,2c-3.33-0.15-6.25-1.3-8.36-4.05c-0.18-0.23-0.4-0.43-0.61-0.64c-0.54-0.97-1.05-1.97-1.4-3.03
				c-0.08-0.24-0.17-0.54-0.51-0.5c-0.3,0.04-0.26,0.32-0.3,0.54c-0.37,2.21-1.05,4.33-1.93,6.38c-0.6,1.38-1.25,2.77-2.68,3.53
				c-1.19,0.64-2.5,0.28-3.25-0.85c-0.88-1.33-1.12-2.83-1.32-4.37c-0.31-2.49-0.3-4.99-0.15-7.48c0.16-2.63,0.47-5.27,0.86-7.89
				c0.39-2.63,0.83-5.24,1.4-7.83c0.67-3,1.36-6,2.41-8.88c0.58-1.57,0.25-2.94-0.11-4.4c-0.54-2.13-1.14-4.23-1.88-6.29
				c-0.61-1.72-1.1-3.5-2-5.1c-0.08-0.14-0.19-0.27-0.25-0.43c-0.28-0.71-0.08-1.55,0.45-1.86c0.57-0.33,1.45-0.1,1.89,0.58
				c0.68,1.05,1.04,2.25,1.54,3.39c0.88,2.02,1.44,4.14,2.18,6.21c0.1,0.27,0.11,0.64,0.5,0.64c0.35,0,0.44-0.34,0.57-0.61
				c1.06-2.26,2.23-4.45,3.77-6.44c1.61-2.09,3.4-3.99,5.74-5.29c1.31-0.52,2.6-1.04,4.01-1.31c3.43-0.66,6.34,0.36,8.84,2.66
				c2.42,2.23,3.95,5.01,4.97,8.13c1.01,3.09,1.43,6.25,1.38,9.48c-0.07,4.37-1.21,8.47-3.26,12.33c-0.77,1.45-1.75,2.76-2.64,4.14
				c-1.54,2.38-3.71,4.12-5.81,5.93c-2.17,1.62-4.51,2.87-7.22,3.36c-1.33,0.24-2.63,0.5-3.99,0.3c-0.35-0.05-0.79-0.03-0.62,0.56
				c0.93,3.17,2.88,5.37,6.19,6.01c2.72,0.53,5.33-0.04,7.76-1.39c0.38-0.21,0.64-0.44,0.51-0.92c-0.22-0.85,0.01-1.69,0.1-2.53
				c0.43-1.45,1.18-2.69,2.27-3.74c0.89-0.86,1.94-1.33,3.16-1.45c1.64-0.16,3.19,1.69,2.69,3.27c-0.29,0.93-0.55,1.89-1.18,2.68
				c-0.15,0.18-0.44,0.42-0.15,0.67c0.22,0.18,0.54,0.04,0.73-0.11c0.58-0.43,1.14-0.88,1.7-1.34c3.35-2.73,5.93-6.11,8.05-9.85
				c1.14-2.02,1.62-4.22,1.8-6.54c0.47-5.9,0.3-11.8,0.51-17.7c0.13-3.48,0.31-6.95,0.86-10.38c0.35-2.2,0.83-4.35,2.21-6.22
				c0.99-1.34,3.21-1.04,4.01,0.08c0.93,1.29,1.46,2.78,1.6,4.28c0.27,2.9,0.4,5.81,0.1,8.74c-0.36,3.52-0.8,7.03-1.61,10.47
				c-0.63,2.64-1.33,5.25-2.23,7.82c-0.82,2.36-1.81,4.63-2.72,6.94c-0.17,0.44-0.25,0.88-0.32,1.33c-0.04,0.25-0.04,0.48,0.24,0.57
				c0.21,0.07,0.35-0.07,0.5-0.22c1.8-1.96,4-3,6.71-2.88c1.64,0.07,3.28,1.31,4.02,2.75c1.34,2.6,1.16,5.24,0.49,7.93
				c-0.9,2.2-2.26,4.11-3.85,5.79c2.16-0.55,3.67-2.08,5.07-3.73c2.54-2.8,4.47-6,6.01-9.42c0.59-1.32,0.65-2.85,1.03-4.27
				c0.5-1.87,1.07-3.71,2.06-5.39C85.7,76.6,87.07,76.55,87.94,77.61z"/>
		</g>
		<g>
			<path class="st0" d="M62.09,94.97c-0.01-0.32,0.03-0.67-0.39-0.79c0.66-1.83,0.74-1.72,1.3-2.46c0.66-0.88,1.54-1.57,2.17-2.47
				c1.11-1.02,2.33-1.82,3.85-2.16c0.63-0.14,1.14-0.09,1.66,0.23c1.83,1.46,1.9,3.45,1.51,5.47c-0.55,2.87-2.24,4.97-4.74,6.44
				c-0.2,0.12-0.42,0.2-0.63,0.28c-1.11,0.4-1.46,0.17-1.48-1c-0.02-0.86-0.03-1.71,0-2.57c0.03-0.76-0.08-1.53-0.82-1.86
				c-0.76-0.34-1.48-0.08-1.98,0.64C62.45,94.87,62.34,95.06,62.09,94.97z"/>
		</g>
		<g>
			<path class="st2" d="M88.16,72.66c-0.04,0.67-0.38,1.02-1.05,1.01c-0.61-0.01-1.02-0.33-1.03-0.94c0-0.62,0.3-1.05,1.01-1.06
				C87.76,71.65,88.11,71.98,88.16,72.66z"/>
		</g>
		<g>
			<path class="st2" d="M99.31,70.88c0.61,0.02,1.05,0.37,1.08,1.13c0.03,0.68-0.63,1.4-1.28,1.33c-0.71-0.07-1.28-0.36-1.28-1.2
				C97.83,71.42,98.41,70.89,99.31,70.88z"/>
		</g>
		<g>
			<path class="st2" d="M70.18,104.06c-0.63,0.24-2.13,0.3-0.79,0c1.58-0.66,3.16-1.31,4.74-1.97
				C73.05,103.2,71.56,103.52,70.18,104.06z"/>
		</g>
		<g>
			<path class="st0" d="M25.97,60.23c1.28-1.9,2.54-3.81,4.33-5.29c2.38-1.97,4.95-3.31,8.18-2.62c0.74,0.16,1.46,0.38,2.1,0.8
				c2.67,1.72,4.32,4.23,5.42,7.13c2.15,5.63,2.11,11.31,0.27,17.01c-1.27,3.33-2.95,6.39-5.19,9.17c-0.18,0.23-0.82,1.01-2.44,2.44
				c-2.16,1.88-4.56,3.32-7.32,4.09c-2.14,0.6-4.26,0.67-6.27-0.52c-0.74-0.44-1.04-1.04-0.96-1.88c0.32-3.54,0.17-7.07-0.2-10.59
				c-0.32-3-0.71-5.99-1.45-8.92c-0.33-1.28-0.3-2.45,0.23-3.71C23.66,64.92,24.55,62.45,25.97,60.23z"/>
		</g>
		<g>
			<path class="st0" d="M63.65,75.7c-0.11-3.58-0.24-7.16-0.07-10.74c0.11-2.32,0.07-4.66,0.3-6.97c0.27-2.68,0.51-5.37,1.49-7.92
				c0.1-0.27,0.14-0.67,0.48-0.68c0.4-0.01,0.44,0.44,0.53,0.73c0.37,1.23,0.58,2.51,0.62,3.78c0.23,7.27-0.94,14.34-3.14,21.25
				C63.8,75.34,63.72,75.51,63.65,75.7z"/>
		</g>
		<g>
			<path class="st0" d="M19.84,100.5c-0.48,1.37-0.96,2.75-1.7,4.01c-0.33,0.56-0.62,0.69-0.85-0.06c-0.54-2.14-0.66-4.31-0.63-6.5
				c0.05-2.64,0.23-5.28,0.53-7.9c0.44-3.86,1.1-7.69,2.03-11.47c0.19-0.79,0.37-1.58,0.63-2.35v0c0.16-0.25,0.18-1.43,0.57-1.38
				c0.31,0.04,0.32,0.36,0.32,0.62c0,0.19-0.05,0.39,0.09,0.55l0,0.01c0.18,0.37,0.1,0.75,0.06,1.14c-0.51,0.24-0.65,0.71-0.76,1.2
				c-0.53,2.37-1.09,4.74-1.43,7.14c-0.39,2.82-0.74,5.65-1.03,8.48c-0.22,2.14-0.12,4.27-0.16,6.4c-0.01,0.81,0.13,1.61,0.37,2.52
				c0.57-0.69,0.73-1.44,0.94-2.13c0.8-2.78,1.36-5.6,1.61-8.5c0.25-2.88,0.3-5.76,0.36-8.64c0.03-1.72-0.55-3.37-0.46-5.09
				c0.03-0.56,0.03-1.05,0.56-1.37c0.43,0.65,0.35,1.42,0.39,2.12c0.07,1.45,0.38,2.9,0.24,4.36c-0.01,0.16-0.01,0.33,0.09,0.47v0
				c0.17,1.46,0.21,2.94,0.07,4.39c-0.19,2.05-0.21,4.11-0.56,6.15C20.8,96.63,20.43,98.59,19.84,100.5z"/>
		</g>
		<g>
			<path class="st2" d="M19.84,100.5c0.41-2.26,1.01-4.48,1.26-6.77c0.28-2.61,0.61-5.21,0.45-7.84c-0.04-0.58,0.05-1.18,0.07-1.77
				c0.44,1.51,0.24,3.05,0.17,4.57c-0.13,2.93-0.32,5.87-0.99,8.74C20.55,98.47,20.42,99.55,19.84,100.5z"/>
		</g>
		<g>
			<path class="st0" d="M43.87,98.84c0.33-1.32,0.86-2.28,1.77-3.03c0.17-0.14,0.42-0.29,0.63-0.16c0.26,0.17,0.1,0.43-0.02,0.61
				C45.64,97.18,45.21,98.28,43.87,98.84z"/>
		</g>
		<g>
			<path class="st2" d="M64.85,89.66c-0.13,0,0.13-0.23,0-0.23c1.03-1.13,2.24-1.94,3.73-2.4c1.53-0.47,2.52-0.18,3.18,1.23
				c-0.43-0.21-0.64-0.75-1.18-0.8c-1.64-0.65-2.93,0.22-4.22,1.01C65.94,88.72,65.22,89.34,64.85,89.66z"/>
		</g>
		<g>
			<path class="st2" d="M64.85,94.57c0.51,0.33,0.58,0.84,0.58,1.38c0,0.92-0.02,1.84,0,2.75c0.03,0.98,0.41,1.22,1.34,0.81
				c0.69-0.3,1.35-0.67,2.02-1.01c-0.65,0.93-1.65,1.28-2.67,1.48c-0.78,0.15-0.99-0.54-1.04-1.13c-0.07-0.85-0.04-1.7-0.02-2.55
				C65.07,95.73,65.02,95.14,64.85,94.57z"/>
		</g>
		<g>
			<path class="st2" d="M70.95,96.14c0.8-1.69,1.61-3.38,1.4-5.34c-0.06-0.58-0.14-1.17-0.21-1.75c0.77,0.96,0.42,2.09,0.37,3.12
				C72.45,93.63,72.17,95.1,70.95,96.14z"/>
		</g>
		<g>
			<path class="st2" d="M68.8,98.52c0.53-0.66,1.12-1.25,1.76-1.79C70.22,97.56,69.7,98.23,68.8,98.52z"/>
		</g>
		<g>
			<path class="st2" d="M72.15,89.06c-0.22-0.22-0.35-0.48-0.39-0.8C72.19,88.38,72.15,88.72,72.15,89.06z"/>
		</g>
		<g>
			<path class="st2" d="M100.11,71.99c-0.13,0.6-0.48,0.88-1.04,0.92c-0.51,0.03-0.83-0.21-0.83-0.73c-0.01-0.59,0.38-0.92,0.9-0.99
				C99.7,71.12,99.87,71.63,100.11,71.99z"/>
		</g>
		<g>
			<path class="st0" d="M63.73,73.59c0.38-3.72,0-7.45,0.27-11.18c0.18-2.65,0.39-5.29,0.66-7.93c0.13-1.28,0.46-2.52,0.83-3.74
				c0.06-0.21,0.15-0.48,0.44-0.43c0.22,0.04,0.25,0.27,0.29,0.47c0.59,3.12,0.55,6.27,0.25,9.41c-0.24,2.54-0.43,5.09-1.02,7.59
				c-0.46,1.96-0.94,3.92-1.41,5.87C63.94,73.63,63.83,73.61,63.73,73.59z"/>
		</g>
		<g>
			<path class="st0" d="M20.83,77.21c-0.04,1.51,0.08,2.99,0.28,4.5c0.24,1.81,0.14,3.67,0.1,5.51c-0.06,2.94-0.27,5.87-0.78,8.78
				c-0.44,2.49-1.01,4.94-2.01,7.28c-0.12,0.29-0.2,0.71-0.61,0.68c-0.47-0.03-0.35-0.5-0.4-0.79c-0.52-2.89-0.34-5.81-0.23-8.72
				c0.06-1.64,0.31-3.27,0.54-4.88c0.31-2.15,0.42-4.33,0.97-6.47c0.49-1.93,0.76-3.92,1.29-5.85c0.07-0.26-0.05-0.69,0.36-0.71
				C20.71,76.52,20.59,77.03,20.83,77.21L20.83,77.21z"/>
		</g>
		<g>
			<path class="st2" d="M20.73,75.78c0.45,0.86,0.58,2.08,0.63,2.99c0.11,1.78,0.45,6.41,0.29,8.2c-0.18-1.51-0.21-5.55-0.43-6.9
				C21.08,79.12,20.73,76.17,20.73,75.78z"/>
		</g>
	</g>
	<g>
		<g>
			<path class="st2" d="M70.89,96.09c0.8-1.69,1.6-3.38,1.4-5.33c-0.06-0.58-0.14-1.17-0.21-1.75c0.76,0.96,0.42,2.09,0.37,3.12
				C72.39,93.58,72.11,95.05,70.89,96.09z"/>
		</g>
		<g>
			<path class="st2" d="M72.09,89.01c-0.22-0.22-0.35-0.48-0.39-0.79C72.13,88.33,72.1,88.68,72.09,89.01z"/>
		</g>
		<path class="st2" d="M99.41,77.73c-0.07-0.58-0.32-1.04-0.9-1.15c-0.55-0.1-1.12-0.04-1.47,0.53c-0.19,0.31-0.37,0.62-0.43,0.98
			c-0.14,0.84-0.36,1.66-0.62,2.47c-1.13,3.54-2.26,7.07-4.36,10.17c-0.07,0.07-1.54,2.08-1.96,2.46c-0.77,0.81-1.53,1.62-2.56,2.11
			c-1.2,0.59-1.86,0.33-2.26-0.91c-0.67-2.05-0.36-4.12-0.1-6.18c0.57-1.89,1.5-3.64,2.14-5.5c0.57-1.66,1.41-3.28,1-5.14
			c-0.87-1.06-2.24-1.01-2.92,0.15c-0.99,1.67-1.57,3.52-2.06,5.38c-0.38,1.42-0.43,2.95-1.03,4.27c-1.54,3.41-3.47,6.61-6.01,9.41
			c-1.41,1.66-2.91,3.18-5.07,3.73c1.59-1.68,2.95-3.58,3.85-5.78c0.67-2.69,0.85-5.32-0.49-7.92c-0.74-1.44-2.38-2.68-4.02-2.75
			c-2.71-0.12-4.9,0.92-6.7,2.87c-0.15,0.16-0.28,0.3-0.49,0.22c-0.27-0.09-0.27-0.32-0.24-0.57c0.07-0.46,0.14-0.9,0.32-1.33
			c0.91-2.31,1.91-4.58,2.72-6.94c0.89-2.57,1.6-5.18,2.22-7.81c0.82-3.44,1.26-6.94,1.61-10.46c0.3-2.92,0.17-5.83-0.1-8.73
			c-0.14-1.5-0.67-2.99-1.59-4.28c-0.8-1.11-3.02-1.41-4.01-0.08c-1.38,1.87-1.86,4.02-2.21,6.22c-0.55,3.43-0.73,6.89-0.86,10.37
			c-0.22,5.89-0.05,11.8-0.51,17.69c-0.18,2.32-0.66,4.52-1.8,6.54c-2.11,3.74-4.69,7.11-8.04,9.84c-0.56,0.46-1.12,0.91-1.7,1.34
			c-0.2,0.15-0.51,0.29-0.73,0.11c-0.3-0.25,0-0.49,0.15-0.67c0.64-0.79,0.89-1.75,1.18-2.68c0.49-1.57-1.05-3.42-2.69-3.26
			c-1.21,0.12-2.26,0.59-3.15,1.45c-1.09,1.05-1.85,2.29-2.27,3.74c-0.09,0.84-0.31,1.68-0.1,2.53c0.12,0.48-0.13,0.71-0.51,0.92
			c-2.43,1.35-5.03,1.92-7.75,1.39c-3.3-0.64-5.25-2.84-6.19-6.01c-0.17-0.59,0.27-0.62,0.62-0.56c1.35,0.2,2.66-0.06,3.98-0.3
			c2.7-0.49,5.04-1.74,7.21-3.36c2.1-1.81,4.26-3.54,5.8-5.93c0.89-1.37,1.87-2.68,2.64-4.13c2.05-3.85,3.19-7.94,3.25-12.31
			c0.05-3.23-0.37-6.39-1.38-9.48c-1.02-3.11-2.55-5.89-4.97-8.12c-2.5-2.3-5.4-3.31-8.83-2.66c-1.41,0.27-2.7,0.8-4.01,1.31
			c-2.34,1.3-4.12,3.19-5.74,5.28c-1.53,1.98-2.71,4.17-3.76,6.43c-0.12,0.26-0.22,0.6-0.57,0.6c-0.39,0-0.4-0.37-0.5-0.64
			c-0.75-2.06-1.3-4.19-2.18-6.2c-0.5-1.14-0.86-2.34-1.54-3.39c-0.44-0.67-1.32-0.91-1.89-0.57c-0.53,0.31-0.73,1.14-0.45,1.85
			c0.06,0.15,0.16,0.28,0.25,0.43c0.9,1.61,1.38,3.38,2,5.1c0.74,2.06,1.34,4.16,1.88,6.29c0.37,1.46,0.69,2.82,0.11,4.39
			c-1.06,2.87-1.74,5.87-2.41,8.87c-0.57,2.59-1.01,5.2-1.4,7.82c-0.39,2.62-0.7,5.25-0.86,7.89c-0.15,2.48-0.16,4.98,0.15,7.47
			c0.19,1.53,0.44,3.04,1.31,4.36c0.74,1.13,2.05,1.49,3.25,0.85c1.43-0.76,2.08-2.15,2.68-3.53c0.88-2.05,1.56-4.17,1.93-6.38
			c0.04-0.22,0-0.5,0.3-0.54c0.34-0.05,0.43,0.25,0.51,0.49c0.35,1.06,0.86,2.06,1.4,3.03c0.21,0.21,0.43,0.41,0.61,0.64
			c2.11,2.75,5.02,3.9,8.35,4.05c2.74,0.12,5.28-0.75,7.69-2c0.45-0.23,0.88-0.44,1.4-0.3c1.11,0.29,2.2,0.2,3.29-0.12
			c2.31-0.69,4.15-2.18,6-3.63c0.74-0.85,1.43-1.74,2.33-2.44c0.08-0.05,0.15-0.11,0.22-0.17c0.47-0.24,0.73-0.73,1.15-1
			c-0.73,1.78-1.56,3.52-1.84,5.45c-0.14,1,0.25,2.04,0.95,2.39c0.73,0.37,1.69,0.05,2.41-0.82c0.31-0.38,0.64-0.74,0.84-1.2
			c0.87-1.61,1.52-3.31,1.96-5.09c0.33-1.32,0.63-2.65,1.33-3.81c0.25-0.52,0.41-0.65,0.77-1.13c0.66-0.88,1.54-1.57,2.17-2.47
			c1.11-1.02,2.33-1.82,3.85-2.16c0.63-0.14,1.14-0.09,1.66,0.23c1.83,1.45,1.89,3.44,1.51,5.47c-0.37,1.92-1.26,3.49-2.55,4.76
			c-0.01,0.01-0.03,0.03-0.04,0.04c-0.63,0.61-1.34,1.16-2.14,1.63c-0.2,0.12-0.42,0.2-0.63,0.28c-1.11,0.4-1.46,0.17-1.47-1
			c-0.02-0.86-0.03-1.71,0-2.56c0.01-0.27,0-0.55-0.05-0.8c0,0,0-0.01,0-0.01c0-0.03-0.01-0.06-0.02-0.08
			c-0.1-0.41-0.31-0.76-0.75-0.96c-0.76-0.34-1.47-0.08-1.97,0.63c-0.05,0.07-0.1,0.15-0.17,0.2c-0.25,0.49-0.4,1.02-0.55,1.54
			c-0.4,1.44-0.53,2.91,0.2,4.28c1.47,2.75,4.18,4.02,7.27,3.5c0.01,0,0.01,0,0.02-0.01c0.28-0.03,0.62-0.09,0.84-0.18
			c1.38-0.53,2.86-0.85,3.95-1.97v0c1.6-1.15,3.08-2.43,4.33-3.95c1.03-1.26,1.98-2.57,2.91-3.91c0.11-0.06,0.21-0.14,0.32-0.18
			c0.36,0.01,0.3,0.32,0.38,0.53c0.81,3.4,3.34,5.03,6.68,3.05c1.28-0.76,2.29-1.85,3.28-2.94c0.19-0.2,0.3-0.53,0.68-0.45
			c0.21,0.35-0.02,0.64-0.12,0.94c-0.51,1.59-1.08,3.16-1.7,4.71c-1.02,2.54-2.1,5.06-3.47,7.44c-2.93,5.87-4.49,9.41-9.04,14.15
			c-0.6,0.72-2.11,2.07-2.18,2.14c-1.67,1.55-3.46,2.94-5.61,3.74c-2.24,0.84-4.49,0.92-6.27-1c-1.87-2-3.21-4.37-4.21-6.92
			c-0.46-1.16-0.9-2.32-1.58-3.37c-0.37-0.57-0.93-0.59-1.48-0.39c-0.53,0.19-0.71,0.64-0.61,1.19c0.05,0.26,0.05,0.52,0.13,0.77
			c0.8,2.54,1.95,4.92,3.3,7.2c0.79,1.33,1.57,2.45,2.71,3.71c1.58,1.41,2.67,1.84,4.33,2.11c2.74,0.44,5.04-0.74,7.3-2.02
			c1.77-1,3.28-2.36,4.75-3.75c1.4-1.33,2.73-2.73,3.84-4.31c1.08-1.54,2.14-3.11,3.2-4.67c2.21-3.44,3.9-6.66,5.66-10.35
			c0.01-0.11,0.21-0.62,0.22-0.74c1.54-3.27,2.77-6.67,3.88-10.11c0.72-2.23,1.21-4.52,1.92-6.74c0.19-1.22,0.5-2.41,0.7-3.62
			c0.16-1.14,0.38-2.26,0.63-3.38C99.2,79.88,99.54,78.84,99.41,77.73z M63.53,64.93c0.11-2.32,0.07-4.65,0.3-6.97
			c0.27-2.68,0.51-5.36,1.49-7.91c0.1-0.27,0.14-0.67,0.48-0.68c0.4-0.01,0.44,0.44,0.53,0.73c0.37,1.23,0.58,2.51,0.62,3.78
			c0.23,7.26-0.94,14.32-3.14,21.23c-0.06,0.18-0.14,0.36-0.21,0.54C63.49,72.09,63.36,68.51,63.53,64.93z M21.68,88.47
			c-0.19,2.05-0.21,4.11-0.55,6.15c-0.33,1.97-0.7,3.92-1.29,5.83c-0.48,1.37-0.96,2.74-1.7,4.01c-0.33,0.56-0.62,0.69-0.85-0.06
			c-0.54-2.14-0.66-4.3-0.63-6.5c0.05-2.64,0.23-5.27,0.53-7.89c0.43-3.86,1.1-7.68,2.03-11.46c0.19-0.79,0.37-1.58,0.63-2.35v0
			c0.16-0.25,0.18-1.43,0.57-1.38c0.31,0.04,0.32,0.35,0.32,0.62c0,0.19-0.05,0.39,0.09,0.55l0,0.01c0.18,0.37,0.1,0.75,0.06,1.14
			c-0.03,0.01-0.04,0.03-0.06,0.04l0,0c0,0.01,0,0.01,0,0.02c0.03-0.02,0.04-0.04,0.07-0.06c0.43,0.65,0.35,1.42,0.39,2.12
			c0.07,1.45,0.38,2.9,0.24,4.36c-0.01,0.16-0.01,0.33,0.09,0.47v0C21.77,85.54,21.81,87.02,21.68,88.47z M25.04,92.4
			c-0.74-0.44-1.04-1.04-0.96-1.88c0.32-3.53,0.17-7.06-0.2-10.58c-0.32-3-0.71-5.98-1.45-8.91c-0.32-1.28-0.3-2.45,0.23-3.71
			c1-2.42,1.89-4.88,3.3-7.11c1.28-1.9,2.54-3.8,4.33-5.28c2.38-1.97,4.95-3.3,8.17-2.62c0.74,0.16,1.46,0.38,2.1,0.8
			c2.67,1.72,4.31,4.23,5.42,7.12c2.15,5.63,2.11,11.3,0.27,17c-1.27,3.33-2.95,6.38-5.18,9.17c-0.18,0.23-0.82,1.01-2.44,2.44
			c-2.15,1.87-4.55,3.31-7.31,4.09C29.16,93.52,27.05,93.59,25.04,92.4z M46.22,96.21c-0.61,0.92-1.03,2.02-2.38,2.57
			c0.33-1.32,0.86-2.28,1.77-3.03c0.17-0.14,0.42-0.29,0.63-0.16C46.49,95.77,46.33,96.03,46.22,96.21z"/>
		<path class="st2" d="M87.03,73.64c0.68,0.01,1.02-0.35,1.05-1.01c-0.05-0.67-0.39-1-1.07-0.99C86.3,71.64,86,72.08,86,72.7
			C86.01,73.31,86.41,73.63,87.03,73.64z"/>
		<path class="st2" d="M99.23,70.86c-0.9,0.01-1.48,0.53-1.48,1.26c0,0.84,0.57,1.13,1.28,1.2c0.65,0.06,1.31-0.65,1.28-1.33
			C100.27,71.23,99.84,70.88,99.23,70.86z"/>
	</g>
</g>
<g id="圖層_1" class="st6">
</g>
</svg>
